<?xml version="1.0" encoding="UTF-8" standalone="no"?>
<svg
   xmlns:dc="http://purl.org/dc/elements/1.1/"
   xmlns:cc="http://creativecommons.org/ns#"
   xmlns:rdf="http://www.w3.org/1999/02/22-rdf-syntax-ns#"
   xmlns:svg="http://www.w3.org/2000/svg"
   xmlns="http://www.w3.org/2000/svg"
   xmlns:sodipodi="http://sodipodi.sourceforge.net/DTD/sodipodi-0.dtd"
   xmlns:inkscape="http://www.inkscape.org/namespaces/inkscape"
   version="1.0"
   width="16"
   height="16"
   viewBox="0 0 1280 1156"
   preserveAspectRatio="xMidYMid meet"
   id="svg2"
   inkscape:version="0.91 r"
   sodipodi:docname="dialogcards.svg">
  <metadata
     id="metadata16">
    <rdf:RDF>
      <cc:Work
         rdf:about="">
        <dc:format>image/svg+xml</dc:format>
        <dc:type
           rdf:resource="http://purl.org/dc/dcmitype/StillImage" />
      </cc:Work>
    </rdf:RDF>
  </metadata>
  <defs
     id="defs14" />
  <sodipodi:namedview
     pagecolor="#ffffff"
     bordercolor="#666666"
     borderopacity="1"
     objecttolerance="10"
     gridtolerance="10"
     guidetolerance="10"
     inkscape:pageopacity="0"
     inkscape:pageshadow="2"
     inkscape:window-width="1920"
     inkscape:window-height="1148"
     id="namedview12"
     showgrid="false"
     inkscape:zoom="20.90519"
     inkscape:cx="8.2728773"
     inkscape:cy="1.9048516"
     inkscape:window-x="0"
     inkscape:window-y="25"
     inkscape:window-maximized="1"
     inkscape:current-layer="svg2" />
  <g
     transform="matrix(0.1,0,0,-0.1,0,1156)"
     id="g4"
     style="fill:#24437c;stroke:none">
    <path
       d="m 6796,11528 c -4,-18 -46,-355 -96,-748 -94,-748 -229,-1826 -355,-2825 -41,-324 -128,-1020 -195,-1545 -278,-2212 -330,-2630 -366,-2908 -20,-161 -35,-294 -33,-296 4,-4 275,-39 2039,-261 503,-63 1291,-162 1750,-220 1954,-246 2202,-277 2205,-273 2,2 58,436 125,963 66,528 152,1208 190,1510 38,303 119,946 180,1430 61,484 140,1110 175,1390 35,281 128,1014 205,1630 77,616 150,1189 161,1274 11,84 19,154 17,155 -2,2 -316,42 -698,89 -382,48 -1071,134 -1530,192 -762,96 -2159,272 -3260,410 -239,30 -452,58 -472,61 -35,5 -37,4 -42,-28 z"
       id="path6"
       inkscape:connector-curvature="0" />
    <path
       d="m 6100,10923 c -152,-22 -609,-85 -2835,-393 -1433,-198 -1507,-209 -1512,-214 -3,-2 16,-155 41,-338 26,-183 105,-755 176,-1270 183,-1323 371,-2679 500,-3613 212,-1533 370,-2674 444,-3215 42,-300 78,-561 81,-581 l 6,-36 57,8 c 31,5 482,67 1002,139 520,72 1235,171 1590,220 355,49 1070,148 1590,220 520,72 1240,172 1600,221 360,50 657,92 659,94 8,9 -38,298 -48,305 -7,3 -91,16 -189,28 -97,12 -712,89 -1367,172 -654,82 -1503,189 -1885,237 -382,47 -696,87 -697,88 -2,1 35,303 82,671 46,368 141,1119 210,1669 118,938 165,1314 365,2898 213,1691 340,2704 340,2710 0,10 -25,8 -210,-20 z"
       id="path8"
       inkscape:connector-curvature="0" />
    <path
       d="M 0,4005 0,0 l 4005,0 4005,0 0,820 c 0,451 -2,820 -4,820 -2,0 -233,-32 -513,-70 -279,-39 -863,-120 -1298,-180 -1504,-208 -2682,-371 -3100,-429 -231,-32 -421,-57 -423,-56 -1,1 -54,375 -117,831 -63,456 -164,1189 -225,1629 -61,440 -169,1221 -240,1735 -290,2095 -350,2534 -376,2718 l -27,192 -843,0 -844,0 0,-4005 z"
       id="path10"
       inkscape:connector-curvature="0" />
  </g>
</svg>
