<?xml version="1.0" encoding="UTF-8" standalone="no"?>
<svg
   xmlns:dc="http://purl.org/dc/elements/1.1/"
   xmlns:cc="http://creativecommons.org/ns#"
   xmlns:rdf="http://www.w3.org/1999/02/22-rdf-syntax-ns#"
   xmlns:svg="http://www.w3.org/2000/svg"
   xmlns="http://www.w3.org/2000/svg"
   xmlns:sodipodi="http://sodipodi.sourceforge.net/DTD/sodipodi-0.dtd"
   xmlns:inkscape="http://www.inkscape.org/namespaces/inkscape"
   width="16"
   height="16"
   id="icons"
   viewBox="0 0 16 16"
   version="1.1"
   sodipodi:docname="microphone.svg"
   inkscape:version="0.92.3 (2405546, 2018-03-11)">
  <metadata
     id="metadata16">
    <rdf:RDF>
      <cc:Work
         rdf:about="">
        <dc:format>image/svg+xml</dc:format>
        <dc:type
           rdf:resource="http://purl.org/dc/dcmitype/StillImage" />
        <dc:title>Icon arr_1slide</dc:title>
      </cc:Work>
    </rdf:RDF>
  </metadata>
  <sodipodi:namedview
     pagecolor="#ffffff"
     bordercolor="#666666"
     borderopacity="1"
     objecttolerance="10"
     gridtolerance="10"
     guidetolerance="10"
     inkscape:pageopacity="0"
     inkscape:pageshadow="2"
     inkscape:window-width="1920"
     inkscape:window-height="1025"
     id="namedview14"
     showgrid="false"
     inkscape:zoom="32"
     inkscape:cx="6.2403351"
     inkscape:cy="7.0314863"
     inkscape:window-x="0"
     inkscape:window-y="27"
     inkscape:window-maximized="1"
     inkscape:current-layer="icons" />
  <defs
     id="defs4">
    <style
       id="style2">
            .cls-1{fill:#24437c;}
        </style>
  </defs>
  <title
     id="title6">Icon arr_1slide</title>
  <g
     style="stroke:#28497c"
     transform="matrix(0.26250819,0,0,0.23845551,-87.741059,-17.700886)"
     id="g10">
    <path
       style="fill:#28497c;stroke-width:5"
       inkscape:connector-curvature="0"
       transform="matrix(0.13972,0,0,0.14761,311.88,25.075)"
       d="m 378.72,350.64 a 66.053,66.053 0 0 1 66.053,66.053 v 171.43 A 66.053,66.053 0 0 1 378.72,654.176 66.053,66.053 0 0 1 312.667,588.123 V 416.693 A 66.053,66.053 0 0 1 378.72,350.64"
       id="path2" />
    <path
       style="fill:none;stroke-width:23.64299965"
       inkscape:connector-curvature="0"
       transform="matrix(0.14834,0,0,0.14773,308.62,26.588)"
       d="m 470.17,534.1 v 48.162 c 0,49.385 -40.789,89.142 -91.454,89.142 -50.665,0 -91.454,-39.757 -91.454,-89.142 V 534.1"
       id="path4" />
    <path
       style="fill:none;stroke-width:22.20599937"
       inkscape:connector-curvature="0"
       transform="matrix(0.16856,0,0,0.14739,300.96,26.794)"
       d="m 378.72,670.59 v 76.074"
       id="path6" />
    <path
       style="fill:none;stroke-width:32.41500092"
       inkscape:connector-curvature="0"
       transform="matrix(0.079099,0,0,0.14739,334.84,26.794)"
       d="M 247.7,746.66 H 509.73"
       id="path8-3" />
  </g>
</svg>
